<?xml version="1.0" encoding="UTF-8"?>
<svg id="Nuevo" xmlns="http://www.w3.org/2000/svg" viewBox="0 0 1080 1080">
  <defs>
    <style>
      .cls-1 {
        fill: #2464ab;
      }
    </style>
  </defs>
  <g>
    <path d="M197.63,718.58h34.63l-12.11,51.26,55.42-51.26h34.79l-59.03,59.22,25.66,76.15h-36.22l-16.69-55.67-18.78,22.21-8.7,33.03-34.61.43,35.64-135.38Z"/>
    <path d="M326.51,716.27h94.23l-7.67,28.9h-61.27l-6.24,24.08,39.4.99-7.55,28.24h-40.06l-7.88,26.92,63.93.37-7.48,28.19h-95.94l36.51-137.69Z"/>
    <path d="M438.26,716.27h31.56l23.69,77.21,22.49-77.21h32.26l-34.54,137.69h-33.14l-26.71-74.33-19.55,74.33h-32.26l36.2-137.69Z"/>
    <path d="M539.25,808.06l34.9-2.37c-1.02,6.32-.84,11.13.51,14.45,2.21,5.36,6.76,8.05,13.65,8.06,5.13,0,9.47-1.35,13.01-4.08,3.54-2.73,5.81-5.9,6.81-9.51s.48-6.5-1.41-9.21c-1.9-2.71-7.32-5.28-16.29-7.7-14.65-4.06-24.41-9.43-29.28-16.12-4.92-6.69-5.94-15.21-3.06-25.56,1.89-6.8,5.41-13.21,10.55-19.25,5.15-6.04,11.68-10.78,19.61-14.23,7.92-3.44,17.94-5.16,30.06-5.13,14.87.03,25.34,3.19,31.4,9.49,6.06,6.3,7.92,16.31,5.59,30.03l-34.53,2.19c.75-5.96.07-10.29-2.06-13-2.13-2.71-5.74-4.07-10.82-4.08-4.18,0-7.61.99-10.29,3.01-2.68,2.01-4.42,4.46-5.22,7.35-.59,2.11-.24,4,1.04,5.69,1.21,1.75,4.78,3.38,10.71,4.9,14.65,3.88,24.83,7.8,30.53,11.75,5.7,3.95,9.3,8.85,10.77,14.69,1.47,5.84,1.21,12.37-.8,19.59-2.36,8.48-6.6,16.3-12.71,23.45-6.12,7.15-13.4,12.57-21.84,16.25-8.44,3.69-18.29,5.52-29.57,5.5-19.8-.04-32.3-4.39-37.51-13.07-5.21-8.68-6.47-19.69-3.76-33.05Z"/>
    <path d="M735.2,831.35l-44.26-.06-12.19,22.77-35.21-.04,82.86-137.93,37.61.05,6.99,138.05-34.37-.04-1.43-22.79ZM735.2,807.79l-1.02-55.91-26.91,55.91h27.93Z"/>
    <path d="M781.45,854.14l41.48-136.75,58.01.02c10.76,0,18.64,1.13,23.64,3.37,5.01,2.24,8.33,6.39,9.97,12.46,1.64,6.06,1.15,13.45-1.5,22.16-2.3,7.59-5.62,14.13-9.95,19.63-4.33,5.5-9.35,9.97-15.05,13.38-3.63,2.18-8.25,3.98-13.86,5.41,3.64,1.68,6.15,3.37,7.53,5.04.94,1.12,2.07,3.52,3.39,7.19s2.08,6.51,2.3,8.5l4.84,39.63h-39.33s-5.93-41.81-5.93-41.81c-.72-5.41-1.75-8.92-3.1-10.54-1.87-2.11-4.39-3.17-7.57-3.17h-3.07s-16.83,55.5-16.83,55.5h-34.96ZM841.08,772.81h14.67c1.59,0,4.85-.61,9.78-1.86,2.48-.56,4.79-1.99,6.95-4.29,2.16-2.3,3.69-4.94,4.59-7.93,1.34-4.41,1.21-7.8-.37-10.17-1.59-2.36-5.56-3.55-11.91-3.55h-15.29s-8.43,27.79-8.43,27.79Z"/>
  </g>
  <g>
    <path d="M194.13,973.78l21.5-109.47,53.74.77-2.9,14.76-35.71-.51-6.31,32.13,31.11.45-2.9,14.76-31.11-.45-6.31,32.13,35.71.51-3.08,15.68-53.74-.77Z"/>
    <path d="M259.53,974.72l21.5-109.47,18.03.26-18.42,93.79,35.71.51-3.08,15.68-53.74-.77Z"/>
    <path d="M324.94,975.66l21.5-109.47,53.74.77-2.9,14.76-35.71-.51-6.31,32.13,31.11.45-2.9,14.76-31.11-.45-6.31,32.13,35.71.51-3.08,15.68-53.74-.77Z"/>
    <path d="M453.75,946.21l-1.33,6.76c-.66,3.38-2.03,6.58-4.1,9.58-2.07,3-4.63,5.67-7.68,7.98-3.06,2.32-6.46,4.15-10.21,5.48-3.75,1.33-7.63,1.97-11.63,1.91-3.42-.05-6.81-.51-10.19-1.38-3.38-.87-6.28-2.35-8.7-4.44-2.42-2.09-4.24-4.76-5.43-8.02-1.2-3.25-1.3-7.39-.31-12.41l11.84-60.27c.7-3.59,2.07-6.91,4.08-9.96,2.02-3.05,4.54-5.69,7.58-7.91,3.03-2.22,6.47-3.94,10.32-5.17,3.85-1.23,7.95-1.81,12.31-1.75,8.48.12,14.91,2.63,19.26,7.52,2.13,2.4,3.61,5.22,4.45,8.47.84,3.25.88,6.77.14,10.56l-1.21,6.15-18.03-.26,1.03-5.23c.6-3.07.12-5.75-1.43-8.04-1.56-2.28-4.05-3.45-7.47-3.5-4.48-.06-7.69,1.1-9.64,3.48-1.95,2.39-3.28,5.43-4.01,9.12l-10.99,55.96c-.62,3.18-.35,5.85.82,8.03,1.17,2.18,3.81,3.29,7.94,3.35,1.18.02,2.48-.14,3.91-.48,1.42-.34,2.81-.91,4.15-1.71,1.22-.8,2.33-1.92,3.32-3.34.99-1.43,1.69-3.22,2.12-5.37l1.06-5.38,18.03.26Z"/>
    <path d="M474.14,977.81l18.6-94.71-20.86-.3,2.9-14.76,59.75.86-2.9,14.76-20.86-.3-18.6,94.71-18.03-.26Z"/>
    <path d="M520.98,978.48l21.5-109.47,28.99.42c21.21.3,29.72,11.17,25.51,32.59-1.27,6.46-3.49,11.92-6.68,16.4-3.18,4.48-7.94,8.06-14.25,10.74l9.63,50.25-19.09-.27-7.62-46.98-10.78-.15-9.18,46.74-18.03-.26ZM557.62,884.03l-6.7,34.13,10.25.15c3.18.05,5.79-.3,7.83-1.04,2.04-.74,3.73-1.82,5.07-3.24,1.22-1.42,2.22-3.18,2.99-5.28.77-2.1,1.42-4.53,1.96-7.3s.84-5.2.9-7.31c.06-2.1-.29-3.94-1.05-5.49-1.68-2.9-5.64-4.4-11.88-4.49l-9.37-.13Z"/>
    <path d="M611.66,895.91c.87-4.41,2.52-8.29,4.95-11.65,2.43-3.36,5.34-6.14,8.73-8.35,3.25-2.11,6.78-3.71,10.6-4.78,3.82-1.08,7.55-1.59,11.21-1.54,3.65.05,7.16.67,10.54,1.85,3.37,1.18,6.32,2.86,8.85,5.06,2.38,2.3,4.13,5.15,5.23,8.56,1.11,3.41,1.22,7.32.36,11.72l-11.35,57.81c-.91,4.61-2.56,8.55-4.98,11.8-2.41,3.26-5.24,5.94-8.49,8.05-3.39,2.21-6.99,3.86-10.81,4.93-3.82,1.08-7.55,1.59-11.2,1.53-3.66-.05-7.17-.67-10.54-1.85-3.37-1.18-6.25-2.92-8.64-5.21-2.52-2.19-4.35-4.94-5.47-8.25-1.12-3.31-1.23-7.26-.33-11.88l11.35-57.81ZM618.34,953.98c-.74,3.79-.09,6.6,1.98,8.43,2.06,1.83,4.75,2.77,8.05,2.81,3.3.05,6.33-.81,9.1-2.57,2.77-1.76,4.52-4.53,5.27-8.33l11.35-57.81c.74-3.79.08-6.6-1.98-8.43-2.06-1.83-4.75-2.77-8.05-2.81-3.3-.05-6.34.81-9.1,2.57-2.77,1.76-4.52,4.54-5.27,8.33l-11.35,57.81Z"/>
    <path d="M670.89,980.63l21.5-109.47,17.32.25,14.27,66.35h.35s12.95-65.95,12.95-65.95l18.03.26-21.5,109.47-16.97-.24-14.65-66.2h-.35s-12.92,65.8-12.92,65.8l-18.03-.26Z"/>
    <path d="M750.62,981.78l21.5-109.47,18.03.26-21.5,109.47-18.03-.26Z"/>
    <path d="M849.55,951.9l-1.33,6.76c-.66,3.38-2.03,6.58-4.1,9.58-2.07,3-4.63,5.67-7.68,7.98-3.06,2.32-6.46,4.15-10.21,5.48-3.75,1.33-7.63,1.97-11.63,1.91-3.42-.05-6.81-.51-10.19-1.38-3.38-.87-6.28-2.35-8.7-4.44-2.42-2.09-4.24-4.76-5.43-8.02-1.2-3.25-1.3-7.39-.31-12.41l11.84-60.27c.7-3.59,2.07-6.91,4.08-9.96,2.02-3.05,4.54-5.69,7.58-7.91,3.03-2.22,6.47-3.94,10.32-5.17,3.85-1.23,7.95-1.81,12.31-1.75,8.48.12,14.91,2.63,19.26,7.52,2.13,2.4,3.61,5.22,4.45,8.47.84,3.25.88,6.77.14,10.56l-1.21,6.15-18.03-.26,1.03-5.23c.6-3.07.12-5.75-1.43-8.04-1.56-2.28-4.05-3.45-7.47-3.5-4.48-.06-7.69,1.1-9.64,3.48-1.95,2.39-3.28,5.43-4.01,9.12l-10.99,55.96c-.62,3.18-.35,5.85.82,8.03,1.17,2.18,3.81,3.29,7.94,3.35,1.18.02,2.48-.14,3.91-.48,1.42-.34,2.81-.91,4.15-1.71,1.22-.8,2.33-1.92,3.32-3.34.99-1.43,1.69-3.22,2.12-5.37l1.06-5.38,18.03.26Z"/>
  </g>
  <path class="cls-1" d="M849.25,390.72c10.05-.85,17.03-10.49,14.57-20.28-36.94-146.98-169.96-255.8-328.39-255.8S240.63,226.21,205.69,376c-2.31,9.92,4.97,19.5,15.14,20.04l3.16.17c7.95.42,35.31-.5,37.13-8.25,31.51-134.42,132.01-212.81,276.04-212.81s241.36,81.01,274.72,212.81c1.98,7.8,29.35,3.44,37.37,2.77h0Z"/>
  <path d="M348.5,234.7s6.49,23.59,44.23,9.43c37.74-14.15,113.22-90.81,270.08-9.43,0,0,25.36,18.37,44.23-11.46,0,0-86.09-64.02-179.26-51.64,0,0-99.07-5.9-179.26,63.1Z"/>
  <path d="M847.64,387.15c10.03-.84,16.99-10.37,14.54-20.04-36.86-145.27-169.59-252.82-327.7-252.82S240.31,224.56,205.44,372.6c-2.31,9.8,4.96,19.27,15.11,19.81l3.16.17c7.93.42,15.01-4.86,16.82-12.52,31.44-132.86,151.83-231.79,295.56-231.79s261,96.39,294.29,226.65c1.97,7.71,9.26,12.9,17.26,12.23h0Z"/>
  <ellipse class="cls-1" cx="225.4" cy="387.96" rx="35.72" ry="35.87"/>
  <rect x="192.22" y="413.53" width="109.56" height="241.79" rx="9.54" ry="9.54"/>
  <rect x="240.76" y="385.35" width="81.88" height="293.47" rx="7.13" ry="7.13"/>
  <ellipse class="cls-1" cx="846.98" cy="387.96" rx="35.09" ry="35.87"/>
  <rect x="772.46" y="413.75" width="109.56" height="241.79" rx="9.54" ry="9.54" transform="translate(1654.48 1069.29) rotate(-180)"/>
  <rect x="750.59" y="385.58" width="81.88" height="293.47" rx="7.13" ry="7.13" transform="translate(1583.06 1064.63) rotate(180)"/>
  <path d="M301.15,190.94c50.3-35.48,236.59-145.9,450.84-12.35,8.71,5.43,14.49,14.59,15.23,24.83,1.12,15.47-5.23,34.85-45.8,31.13-5.17-.47-10.15-2.24-14.5-5.09-31.29-20.54-184.68-108.26-362.88,12.31-4.33,2.93-9.32,4.76-14.51,5.28-12.68,1.27-34.89.14-40.99-21.84-3.57-12.86,1.71-26.57,12.62-34.27Z"/>
  <g>
    <g>
      <rect x="353.43" y="654.87" width="59.61" height="22.38"/>
      <rect x="430.94" y="654.87" width="59.61" height="22.38"/>
      <rect x="507.36" y="654.87" width="59.61" height="22.38"/>
      <rect x="584.32" y="654.87" width="59.61" height="22.38"/>
      <rect x="660.85" y="654.87" width="59.61" height="22.38"/>
      <rect x="353.43" y="618.79" width="59.61" height="22.38"/>
      <rect x="430.94" y="618.79" width="59.61" height="22.38"/>
      <rect x="507.36" y="618.79" width="59.61" height="22.38"/>
      <rect x="584.32" y="618.79" width="59.61" height="22.38"/>
      <rect x="660.85" y="618.79" width="59.61" height="22.38"/>
      <rect x="584.32" y="584.19" width="59.61" height="22.38"/>
      <rect x="660.85" y="584.19" width="59.61" height="22.38"/>
    </g>
    <g>
      <rect x="353.43" y="584.19" width="59.61" height="22.38"/>
      <rect x="430.94" y="584.19" width="59.61" height="22.38"/>
      <rect x="507.36" y="584.19" width="59.61" height="22.38"/>
      <rect x="430.94" y="548.11" width="59.61" height="22.38"/>
      <rect x="507.36" y="548.11" width="59.61" height="22.38"/>
      <rect x="584.32" y="548.11" width="59.61" height="22.38"/>
      <rect x="353.65" y="548.58" width="59.61" height="22.38"/>
      <rect x="661.07" y="548.58" width="59.61" height="22.38"/>
      <rect x="584.54" y="512.5" width="59.61" height="22.38"/>
      <rect x="509.21" y="511.69" width="59.61" height="22.38"/>
    </g>
    <g>
      <rect x="432.79" y="511.69" width="59.61" height="22.38"/>
      <rect x="432.79" y="475.61" width="59.61" height="22.38"/>
      <rect x="509.21" y="475.61" width="59.61" height="22.38"/>
      <rect x="432.79" y="441.01" width="59.61" height="22.38"/>
      <rect x="509.21" y="441.01" width="59.61" height="22.38"/>
      <rect x="432.79" y="404.93" width="59.61" height="22.38"/>
      <rect x="509.21" y="404.93" width="59.61" height="22.38"/>
      <rect x="509.21" y="365.77" width="59.61" height="22.38"/>
    </g>
  </g>
  <path class="cls-1" d="M311.37,387.29h13.89v290.05h-13.89c-1.64,0-2.97-1.33-2.97-2.97v-284.11c0-1.64,1.33-2.97,2.97-2.97Z"/>
  <path class="cls-1" d="M752.89,389.01h13.89v290.05h-13.89c-1.64,0-2.97-1.33-2.97-2.97v-284.11c0-1.64,1.33-2.97,2.97-2.97Z" transform="translate(1516.7 1068.07) rotate(180)"/>
  <rect x="252.17" y="421.68" width="14.84" height="123.47" rx="1.31" ry="1.31"/>
  <rect x="199.59" y="451.23" width="10.83" height="90.09" rx="1.31" ry="1.31"/>
  <circle cx="260.91" cy="565.99" r="7.42"/>
  <circle cx="205.01" cy="556.45" r="5.42"/>
  <path d="M356.77,171.13c.48,2.59,2.31,5,7.54,4.78,1.01-.04,2.01-.33,2.9-.8,7.81-4.13,51.61-26.57,90.85-32.32,1.7-.25,3.25-1.18,4.17-2.63,1.35-2.15,2.49-5.43-.37-8.29-1.39-1.39-3.41-1.98-5.35-1.63-11.11,1.96-58.62,11.28-96.02,33.11-2.71,1.58-4.3,4.7-3.73,7.78Z"/>
  <circle cx="319.91" cy="198.13" r="7.39"/>
  <rect x="808.03" y="424.22" width="14.84" height="123.47" rx="1.31" ry="1.31" transform="translate(1630.91 971.91) rotate(180)"/>
  <rect x="864.61" y="453.77" width="10.83" height="90.09" rx="1.31" ry="1.31" transform="translate(1740.06 997.63) rotate(-180)"/>
  <circle cx="814.13" cy="568.53" r="7.42"/>
  <circle cx="870.03" cy="559" r="5.42"/>
</svg>