<?xml version="1.0" encoding="UTF-8"?>
<svg id="Nuevo" xmlns="http://www.w3.org/2000/svg" viewBox="0 0 1080 1080">
  <defs>
    <style>
      .cls-1 {
        fill: #0d121f;
      }

      .cls-2 {
        fill: #838a8c;
      }

      .cls-3 {
        fill: #2464ab;
      }

      .cls-4 {
        fill: #868c8e;
      }

      .cls-4, .cls-5 {
        opacity: .9;
      }

      .cls-5 {
        fill: #848b8c;
      }
    </style>
  </defs>
  <g>
    <path d="M197.63,718.58h34.63l-12.11,51.26,55.42-51.26h34.79l-59.03,59.22,25.66,76.15h-36.22l-16.69-55.67-18.78,22.21-8.7,33.03-34.61.43,35.64-135.38Z"/>
    <path d="M326.51,716.27h94.23l-7.67,28.9h-61.27l-6.24,24.08,39.4.99-7.55,28.24h-40.06l-7.88,26.92,63.93.37-7.48,28.19h-95.94l36.51-137.69Z"/>
    <path d="M438.26,716.27h31.56l23.69,77.21,22.49-77.21h32.26l-34.54,137.69h-33.14l-26.71-74.33-19.55,74.33h-32.26l36.2-137.69Z"/>
    <path d="M539.25,808.06l34.9-2.37c-1.02,6.32-.84,11.13.51,14.45,2.21,5.36,6.76,8.05,13.65,8.06,5.13,0,9.47-1.35,13.01-4.08,3.54-2.73,5.81-5.9,6.81-9.51s.48-6.5-1.41-9.21c-1.9-2.71-7.32-5.28-16.29-7.7-14.65-4.06-24.41-9.43-29.28-16.12-4.92-6.69-5.94-15.21-3.06-25.56,1.89-6.8,5.41-13.21,10.55-19.25,5.15-6.04,11.68-10.78,19.61-14.23,7.92-3.44,17.94-5.16,30.06-5.13,14.87.03,25.34,3.19,31.4,9.49,6.06,6.3,7.92,16.31,5.59,30.03l-34.53,2.19c.75-5.96.07-10.29-2.06-13-2.13-2.71-5.74-4.07-10.82-4.08-4.18,0-7.61.99-10.29,3.01-2.68,2.01-4.42,4.46-5.22,7.35-.59,2.11-.24,4,1.04,5.69,1.21,1.75,4.78,3.38,10.71,4.9,14.65,3.88,24.83,7.8,30.53,11.75,5.7,3.95,9.3,8.85,10.77,14.69,1.47,5.84,1.21,12.37-.8,19.59-2.36,8.48-6.6,16.3-12.71,23.45-6.12,7.15-13.4,12.57-21.84,16.25-8.44,3.69-18.29,5.52-29.57,5.5-19.8-.04-32.3-4.39-37.51-13.07-5.21-8.68-6.47-19.69-3.76-33.05Z"/>
    <path d="M735.2,831.35l-44.26-.06-12.19,22.77-35.21-.04,82.86-137.93,37.61.05,6.99,138.05-34.37-.04-1.43-22.79ZM735.2,807.79l-1.02-55.91-26.91,55.91h27.93Z"/>
    <path d="M781.45,854.14l41.48-136.75,58.01.02c10.76,0,18.64,1.13,23.64,3.37,5.01,2.24,8.33,6.39,9.97,12.46,1.64,6.06,1.15,13.45-1.5,22.16-2.3,7.59-5.62,14.13-9.95,19.63-4.33,5.5-9.35,9.97-15.05,13.38-3.63,2.18-8.25,3.98-13.86,5.41,3.64,1.68,6.15,3.37,7.53,5.04.94,1.12,2.07,3.52,3.39,7.19s2.08,6.51,2.3,8.5l4.84,39.63h-39.33s-5.93-41.81-5.93-41.81c-.72-5.41-1.75-8.92-3.1-10.54-1.87-2.11-4.39-3.17-7.57-3.17h-3.07s-16.83,55.5-16.83,55.5h-34.96ZM841.08,772.81h14.67c1.59,0,4.85-.61,9.78-1.86,2.48-.56,4.79-1.99,6.95-4.29,2.16-2.3,3.69-4.94,4.59-7.93,1.34-4.41,1.21-7.8-.37-10.17-1.59-2.36-5.56-3.55-11.91-3.55h-15.29s-8.43,27.79-8.43,27.79Z"/>
  </g>
  <g>
    <path d="M301.01,947.8l14.6-74.35,36.5.52-1.97,10.02-24.25-.35-4.29,21.82,21.13.3-1.97,10.02-21.13-.3-4.29,21.83,24.25.35-2.09,10.65-36.5-.52Z"/>
    <path d="M345.43,948.44l14.6-74.35,12.25.18-12.51,63.7,24.26.35-2.09,10.65-36.5-.52Z"/>
    <path d="M389.86,949.08l14.6-74.35,36.5.52-1.97,10.02-24.26-.35-4.29,21.82,21.13.3-1.97,10.02-21.13-.3-4.29,21.83,24.26.35-2.09,10.65-36.5-.52Z"/>
    <path d="M477.35,929.08l-.9,4.59c-.45,2.3-1.38,4.47-2.78,6.51-1.41,2.04-3.15,3.85-5.22,5.42-2.08,1.58-4.39,2.82-6.93,3.72-2.55.91-5.18,1.34-7.9,1.3-2.32-.03-4.63-.35-6.92-.94-2.29-.59-4.26-1.6-5.91-3.02-1.65-1.42-2.88-3.24-3.69-5.45-.81-2.21-.88-5.02-.21-8.43l8.04-40.94c.48-2.44,1.4-4.69,2.77-6.77,1.37-2.07,3.09-3.87,5.15-5.37,2.06-1.51,4.4-2.68,7.01-3.51,2.61-.83,5.4-1.23,8.36-1.19,5.76.08,10.12,1.79,13.08,5.11,1.44,1.63,2.45,3.54,3.03,5.75.57,2.21.6,4.6.1,7.17l-.82,4.18-12.25-.18.7-3.55c.41-2.09.08-3.91-.97-5.46-1.06-1.55-2.75-2.34-5.07-2.38-3.04-.04-5.22.75-6.54,2.37-1.32,1.62-2.23,3.68-2.72,6.19l-7.47,38.01c-.42,2.16-.24,3.98.55,5.45.79,1.48,2.59,2.24,5.39,2.28.8.01,1.68-.1,2.65-.33.97-.23,1.91-.62,2.82-1.16.83-.55,1.58-1.3,2.25-2.27s1.15-2.18,1.44-3.64l.72-3.65,12.25.18Z"/>
    <path d="M491.2,950.54l12.63-64.33-14.17-.2,1.97-10.02,40.58.58-1.97,10.02-14.17-.2-12.63,64.33-12.25-.18Z"/>
    <path d="M523.01,950.99l14.6-74.35,19.69.28c14.41.21,20.18,7.59,17.33,22.13-.86,4.39-2.37,8.1-4.54,11.14-2.16,3.04-5.39,5.47-9.68,7.3l6.54,34.13-12.97-.19-5.17-31.91-7.32-.11-6.23,31.75-12.25-.18ZM547.89,886.84l-4.55,23.18,6.96.1c2.16.03,3.93-.21,5.32-.71,1.38-.5,2.53-1.24,3.44-2.2.83-.96,1.51-2.16,2.03-3.58.52-1.42.97-3.08,1.33-4.96s.57-3.53.61-4.97c.04-1.43-.2-2.67-.71-3.73-1.14-1.97-3.83-2.99-8.07-3.05l-6.36-.09Z"/>
    <path d="M584.6,894.91c.59-2.99,1.71-5.63,3.36-7.91,1.65-2.28,3.63-4.17,5.93-5.67,2.21-1.43,4.61-2.52,7.2-3.25,2.59-.73,5.13-1.08,7.61-1.04,2.48.04,4.87.46,7.16,1.26,2.29.8,4.29,1.95,6.01,3.44,1.62,1.56,2.8,3.5,3.55,5.81.75,2.31.83,4.97.24,7.96l-7.71,39.26c-.62,3.13-1.74,5.8-3.38,8.01-1.64,2.21-3.56,4.03-5.77,5.47-2.3,1.5-4.75,2.62-7.34,3.35-2.59.73-5.13,1.08-7.61,1.04-2.48-.04-4.87-.45-7.16-1.25-2.29-.8-4.25-1.98-5.87-3.54-1.71-1.49-2.95-3.36-3.72-5.6-.76-2.25-.84-4.93-.22-8.07l7.71-39.26ZM589.14,934.35c-.51,2.58-.06,4.49,1.34,5.73,1.4,1.24,3.22,1.88,5.47,1.91,2.24.03,4.3-.55,6.18-1.74,1.88-1.19,3.07-3.08,3.58-5.66l7.71-39.26c.51-2.57.06-4.48-1.34-5.73-1.4-1.24-3.23-1.88-5.46-1.91-2.24-.03-4.3.55-6.18,1.74-1.88,1.2-3.07,3.08-3.58,5.66l-7.71,39.26Z"/>
    <path d="M624.83,952.46l14.6-74.35,11.77.17,9.69,45.06h.24s8.8-44.8,8.8-44.8l12.25.18-14.6,74.35-11.53-.17-9.95-44.96h-.24s-8.78,44.69-8.78,44.69l-12.25-.18Z"/>
    <path d="M678.98,953.23l14.6-74.35,12.25.18-14.6,74.35-12.25-.18Z"/>
    <path d="M746.18,932.94l-.9,4.59c-.45,2.3-1.38,4.47-2.78,6.51-1.41,2.04-3.15,3.85-5.22,5.42-2.08,1.58-4.39,2.82-6.93,3.72-2.55.91-5.18,1.34-7.9,1.3-2.32-.03-4.63-.35-6.92-.94-2.29-.59-4.26-1.6-5.91-3.02-1.65-1.42-2.88-3.24-3.69-5.45-.81-2.21-.88-5.02-.21-8.43l8.04-40.94c.48-2.44,1.4-4.69,2.77-6.77s3.09-3.87,5.15-5.37c2.06-1.51,4.4-2.68,7.01-3.51,2.61-.83,5.4-1.23,8.36-1.19,5.76.08,10.12,1.79,13.08,5.11,1.44,1.63,2.45,3.54,3.03,5.75.57,2.21.6,4.6.1,7.17l-.82,4.18-12.25-.18.7-3.55c.41-2.09.08-3.91-.97-5.46-1.06-1.55-2.75-2.34-5.07-2.38-3.04-.04-5.22.75-6.54,2.37-1.32,1.62-2.23,3.68-2.72,6.19l-7.47,38.01c-.42,2.16-.24,3.98.55,5.45.79,1.48,2.59,2.24,5.39,2.28.8.01,1.68-.1,2.65-.33.97-.23,1.91-.62,2.82-1.16.83-.55,1.58-1.3,2.25-2.27.67-.97,1.15-2.18,1.44-3.64l.72-3.65,12.25.18Z"/>
  </g>
  <path class="cls-3" d="M849.25,390.72c10.05-.85,17.03-10.49,14.57-20.28-36.94-146.98-169.96-255.8-328.39-255.8S240.63,226.21,205.69,376c-2.31,9.92,4.97,19.5,15.14,20.04l3.16.17c7.95.42,35.31-.5,37.13-8.25,31.51-134.42,132.01-212.81,276.04-212.81s241.36,81.01,274.72,212.81c1.98,7.8,29.35,3.44,37.37,2.77h0Z"/>
  <path class="cls-1" d="M348.5,234.7s6.49,23.59,44.23,9.43c37.74-14.15,113.22-90.81,270.08-9.43,0,0,25.36,18.37,44.23-11.46,0,0-86.09-64.02-179.26-51.64,0,0-99.07-5.9-179.26,63.1Z"/>
  <path class="cls-1" d="M847.64,387.15c10.03-.84,16.99-10.37,14.54-20.04-36.86-145.27-169.59-252.82-327.7-252.82S240.31,224.56,205.44,372.6c-2.31,9.8,4.96,19.27,15.11,19.81l3.16.17c7.93.42,15.01-4.86,16.82-12.52,31.44-132.86,151.83-231.79,295.56-231.79s261,96.39,294.29,226.65c1.97,7.71,9.26,12.9,17.26,12.23h0Z"/>
  <ellipse class="cls-3" cx="225.4" cy="387.96" rx="35.72" ry="35.87"/>
  <rect class="cls-1" x="192.22" y="413.53" width="109.56" height="241.79" rx="9.54" ry="9.54"/>
  <rect class="cls-1" x="240.76" y="385.35" width="81.88" height="293.47" rx="7.13" ry="7.13"/>
  <ellipse class="cls-3" cx="846.98" cy="387.96" rx="35.09" ry="35.87"/>
  <rect class="cls-1" x="772.46" y="413.75" width="109.56" height="241.79" rx="9.54" ry="9.54" transform="translate(1654.48 1069.29) rotate(-180)"/>
  <rect class="cls-1" x="750.59" y="385.58" width="81.88" height="293.47" rx="7.13" ry="7.13" transform="translate(1583.06 1064.63) rotate(180)"/>
  <path class="cls-1" d="M301.15,190.94c50.3-35.48,236.59-145.9,450.84-12.35,8.71,5.43,14.49,14.59,15.23,24.83,1.12,15.47-5.23,34.85-45.8,31.13-5.17-.47-10.15-2.24-14.5-5.09-31.29-20.54-184.68-108.26-362.88,12.31-4.33,2.93-9.32,4.76-14.51,5.28-12.68,1.27-34.89.14-40.99-21.84-3.57-12.86,1.71-26.57,12.62-34.27Z"/>
  <g>
    <rect x="353.43" y="654.87" width="59.61" height="22.38"/>
    <rect x="430.94" y="654.87" width="59.61" height="22.38"/>
    <rect x="507.36" y="654.87" width="59.61" height="22.38"/>
    <rect x="584.32" y="654.87" width="59.61" height="22.38"/>
    <rect x="660.85" y="654.87" width="59.61" height="22.38"/>
    <rect x="353.43" y="618.79" width="59.61" height="22.38"/>
    <rect x="430.94" y="618.79" width="59.61" height="22.38"/>
    <rect x="507.36" y="618.79" width="59.61" height="22.38"/>
    <rect x="584.32" y="618.79" width="59.61" height="22.38"/>
    <rect x="660.85" y="618.79" width="59.61" height="22.38"/>
    <rect x="353.43" y="584.19" width="59.61" height="22.38"/>
    <rect x="430.94" y="584.19" width="59.61" height="22.38"/>
    <rect x="507.36" y="584.19" width="59.61" height="22.38"/>
    <rect x="584.32" y="584.19" width="59.61" height="22.38"/>
    <rect x="660.85" y="584.19" width="59.61" height="22.38"/>
    <rect x="430.94" y="548.11" width="59.61" height="22.38"/>
    <rect x="507.36" y="548.11" width="59.61" height="22.38"/>
    <rect x="584.32" y="548.11" width="59.61" height="22.38"/>
    <rect x="353.65" y="548.58" width="59.61" height="22.38"/>
    <rect x="661.07" y="548.58" width="59.61" height="22.38"/>
    <rect x="584.54" y="512.5" width="59.61" height="22.38"/>
    <rect x="432.79" y="511.69" width="59.61" height="22.38"/>
    <rect x="509.21" y="511.69" width="59.61" height="22.38"/>
    <rect x="432.79" y="475.61" width="59.61" height="22.38"/>
    <rect x="509.21" y="475.61" width="59.61" height="22.38"/>
    <rect x="432.79" y="441.01" width="59.61" height="22.38"/>
    <rect x="509.21" y="441.01" width="59.61" height="22.38"/>
    <rect x="432.79" y="404.93" width="59.61" height="22.38"/>
    <rect x="509.21" y="404.93" width="59.61" height="22.38"/>
    <rect x="509.21" y="365.77" width="59.61" height="22.38"/>
  </g>
  <path class="cls-3" d="M311.37,387.29h13.89v290.05h-13.89c-1.64,0-2.97-1.33-2.97-2.97v-284.11c0-1.64,1.33-2.97,2.97-2.97Z"/>
  <path class="cls-3" d="M752.89,389.01h13.89v290.05h-13.89c-1.64,0-2.97-1.33-2.97-2.97v-284.11c0-1.64,1.33-2.97,2.97-2.97Z" transform="translate(1516.7 1068.07) rotate(180)"/>
  <rect class="cls-2" x="252.17" y="421.68" width="14.84" height="123.47" rx="1.31" ry="1.31"/>
  <rect class="cls-2" x="199.59" y="451.23" width="10.83" height="90.09" rx="1.31" ry="1.31"/>
  <circle class="cls-2" cx="260.91" cy="565.99" r="7.42"/>
  <circle class="cls-2" cx="205.01" cy="556.45" r="5.42"/>
  <path class="cls-5" d="M356.77,171.13c.48,2.59,2.31,5,7.54,4.78,1.01-.04,2.01-.33,2.9-.8,7.81-4.13,51.61-26.57,90.85-32.32,1.7-.25,3.25-1.18,4.17-2.63,1.35-2.15,2.49-5.43-.37-8.29-1.39-1.39-3.41-1.98-5.35-1.63-11.11,1.96-58.62,11.28-96.02,33.11-2.71,1.58-4.3,4.7-3.73,7.78Z"/>
  <circle class="cls-4" cx="319.91" cy="198.13" r="7.39"/>
  <rect class="cls-2" x="808.03" y="424.22" width="14.84" height="123.47" rx="1.31" ry="1.31" transform="translate(1630.91 971.91) rotate(180)"/>
  <rect class="cls-2" x="864.61" y="453.77" width="10.83" height="90.09" rx="1.31" ry="1.31" transform="translate(1740.06 997.63) rotate(-180)"/>
  <circle class="cls-2" cx="814.13" cy="568.53" r="7.42"/>
  <circle class="cls-2" cx="870.03" cy="559" r="5.42"/>
</svg>